<?xml version="1.0" encoding="UTF-8"?>
<!DOCTYPE svg PUBLIC "-//W3C//DTD SVG 1.1//EN" "http://www.w3.org/Graphics/SVG/1.1/DTD/svg11.dtd">
<!-- Creator: CorelDRAW X6 -->
<svg xmlns="http://www.w3.org/2000/svg" xml:space="preserve" width="22.245mm" height="19.4476mm" version="1.1" style="shape-rendering:geometricPrecision; text-rendering:geometricPrecision; image-rendering:optimizeQuality; fill-rule:evenodd; clip-rule:evenodd"
viewBox="0 0 2214 1936"
 xmlns:xlink="http://www.w3.org/1999/xlink">
 <defs>
  <style type="text/css">
   <![CDATA[
    .fil0 {fill:white}
   ]]>
  </style>
 </defs>
 <g id="Слой_x0020_1">
  <metadata id="CorelCorpID_0Corel-Layer"/>
  <path class="fil0" d="M1107 699l-185 -323 370 0 -185 323zm0 -699l-185 323 370 0 -185 -323zm-415 726l185 -323 184 323 -369 0zm461 0l185 -323 184 323 -369 0zm185 377l-185 -323 369 0 -184 323zm-461 0l-185 -323 369 0 -184 323zm-416 26l185 -322 184 322 -369 0zm923 0l184 -322 185 322 -369 0zm184 377l-184 -323 369 0 -185 323zm-922 0l-185 -323 369 0 -184 323zm-415 26l184 -322 184 322 -368 0zm1383 0l185 -322 185 322 -370 0zm185 377l-185 -323 370 0 -185 323zm-461 0l-185 -323 369 0 -184 323zm-923 0l-184 -323 368 0 -184 323zm-415 27l185 -323 184 323 -369 0zm922 0l185 -323 185 323 -370 0zm462 0l184 -323 185 323 -369 0zm461 0l185 -323 184 323 -369 0z"/>
 </g>
</svg>
